<svg width="256" height="40" viewBox="0 0 256 40" fill="none" xmlns="http://www.w3.org/2000/svg">
<path d="M49.8408 21.5245C49.8408 13.3044 55.2459 8.53516 61.459 8.53516C62.8423 8.54474 64.2096 8.83378 65.4801 9.38515C66.7505 9.93653 67.8983 10.739 68.8555 11.7452L65.931 15.3451C64.8125 14.1406 63.2659 13.4315 61.6297 13.3732C58.2159 13.3732 55.5873 16.3654 55.5873 21.3983C55.5873 26.4313 57.9428 29.4235 61.5386 29.4235C62.4567 29.4084 63.361 29.196 64.1911 28.8006C65.0211 28.4052 65.7579 27.8359 66.3521 27.1306L69.2879 30.6502C68.3151 31.8191 67.0946 32.7534 65.7161 33.3844C64.3376 34.0153 62.8362 34.3268 61.3224 34.2959C55.0525 34.2386 49.8408 29.8706 49.8408 21.5245Z" fill="white"/>
<path d="M70.7325 24.3452C70.7325 18.2346 75.068 14.4513 79.5628 14.4513C84.8997 14.4513 87.5283 18.3607 87.5283 23.5083C87.5305 24.3391 87.4543 25.1683 87.3007 25.9846H76.0466C76.2002 27.146 76.7893 28.2041 77.6929 28.9418C78.5964 29.6794 79.746 30.0407 80.9056 29.9513C82.3435 29.9236 83.7457 29.495 84.9566 28.7131L86.7886 32.0837C84.8284 33.4346 82.5177 34.1761 80.1431 34.2161C74.8063 34.239 70.7325 30.5933 70.7325 24.3452ZM82.8059 22.2816C82.8059 20.2065 81.9069 18.7161 79.688 18.7161C77.9356 18.7161 76.4221 19.8625 76.0466 22.2816H82.8059Z" fill="white"/>
<path d="M89.8042 14.9095H94.3559L94.7314 17.34H94.8679C95.6339 16.4875 96.5606 15.797 97.5941 15.3089C98.6276 14.8208 99.7471 14.5447 100.888 14.4968C104.961 14.4968 106.702 17.3973 106.702 22.1093V33.7801H101.149V22.7742C101.149 20.0686 100.432 19.2087 98.8734 19.2087C97.4738 19.2087 96.5976 19.8737 95.4597 21.0431V33.7801H89.8042V14.9095Z" fill="white"/>
<path d="M111.403 26.9129V19.3004H108.842V15.1274L111.71 14.9095L112.358 9.89954H116.91V14.9095H121.462V19.3004H116.91V26.8556C116.91 28.988 117.877 29.8478 119.334 29.8478C119.944 29.825 120.547 29.705 121.12 29.4924L121.997 33.5508C120.654 34.0049 119.248 34.2372 117.832 34.2387C113.235 34.2387 111.403 31.2923 111.403 26.9129Z" fill="white"/>
<path d="M124.352 14.9099H128.904L129.302 18.2117H129.439C130.804 15.6895 132.853 14.4513 134.753 14.4513C135.53 14.4069 136.307 14.5361 137.029 14.8296L136.05 19.6333C135.391 19.4458 134.71 19.3456 134.025 19.3352C132.614 19.3352 130.895 20.2523 129.894 22.7745V33.7117H124.352V14.9099Z" fill="white"/>
<path d="M137.46 28.5412C137.46 24.563 140.59 22.4191 147.997 21.6625C148.018 21.2766 147.954 20.8908 147.809 20.533C147.664 20.1752 147.442 19.8543 147.159 19.5933C146.876 19.3324 146.539 19.1379 146.172 19.0239C145.806 18.9098 145.419 18.8791 145.039 18.9339C143.293 19.0613 141.608 19.6376 140.146 20.6077L138.166 16.9391C140.54 15.3813 143.298 14.5199 146.131 14.4513C150.922 14.4513 153.573 17.2028 153.573 22.9924V33.7805H149.022L148.623 31.843H148.487C147.029 33.2975 145.086 34.1519 143.036 34.2391C142.29 34.2654 141.547 34.1353 140.853 33.8572C140.16 33.5791 139.531 33.159 139.007 32.6234C138.483 32.0878 138.075 31.4485 137.808 30.7458C137.542 30.0431 137.424 29.2924 137.46 28.5412ZM147.997 28.3004V24.9987C144.06 25.5375 142.774 26.6725 142.774 28.0941C142.774 29.3093 143.594 29.9055 144.914 29.9055C145.512 29.8749 146.096 29.7158 146.628 29.439C147.16 29.1622 147.627 28.774 147.997 28.3004Z" fill="white"/>
<path d="M157.455 27.9105V7.13684H163.008V28.1398C163.008 29.2863 163.554 29.7219 164.009 29.7219C164.24 29.7302 164.47 29.7031 164.692 29.6417L165.352 33.7689C164.463 34.1102 163.515 34.2699 162.564 34.239C158.763 34.239 157.455 31.7282 157.455 27.9105Z" fill="white"/>
<path d="M170.074 7.89331H174.012L178.939 21.731C179.553 23.4965 180.145 25.3194 180.759 27.1193H180.919C181.533 25.3194 182.057 23.4965 182.694 21.731L187.564 7.89331H191.501V33.7802H188.463V19.5298C188.463 17.2369 188.713 14.1644 188.873 11.8715H188.713L186.677 17.7757L181.84 31.1663H179.678L174.819 17.7757L172.783 11.8715H172.623C172.783 14.1644 173.033 17.2713 173.033 19.5298V33.7802H170.074V7.89331Z" fill="white"/>
<path d="M196.406 26.7525V14.6116H199.627V26.3398C199.627 29.9052 200.708 31.43 203.222 31.43C205.168 31.43 206.511 30.467 208.309 28.2085V14.6116H211.529V33.7803H208.878L208.605 30.7765H208.491C206.727 32.8631 204.827 34.2159 202.221 34.2159C198.181 34.2503 196.406 31.6478 196.406 26.7525Z" fill="white"/>
<path d="M215.067 31.5906L216.648 29.4582C218.184 30.8847 220.182 31.6996 222.27 31.7511C224.762 31.7511 226.002 30.4098 226.002 28.7704C226.002 26.7985 223.726 25.9271 221.655 25.1361C218.992 24.1616 215.965 22.8432 215.965 19.5987C215.965 16.5377 218.401 14.1646 222.52 14.1646C224.674 14.1979 226.755 14.9521 228.437 16.3084L226.901 18.395C225.681 17.3547 224.151 16.7536 222.554 16.6867C220.164 16.6867 219.061 17.9708 219.061 19.4382C219.061 21.2611 221.12 21.949 223.282 22.7629C226.025 23.8062 229.086 24.9297 229.086 28.5755C229.086 31.6823 226.628 34.3077 222.144 34.3077C219.547 34.2374 217.051 33.2792 215.067 31.5906Z" fill="white"/>
<path d="M232.204 8.56999C232.314 8.05768 232.594 7.5987 232.999 7.2695C233.404 6.94029 233.908 6.76074 234.428 6.76074C234.949 6.76074 235.453 6.94029 235.858 7.2695C236.263 7.5987 236.543 8.05768 236.653 8.56999C236.543 9.08231 236.263 9.54128 235.858 9.87049C235.453 10.1997 234.949 10.3792 234.428 10.3792C233.908 10.3792 233.404 10.1997 232.999 9.87049C232.594 9.54128 232.314 9.08231 232.204 8.56999ZM232.796 14.6118H236.005V33.7805H232.796V14.6118Z" fill="white"/>
<path d="M240.284 24.2189C240.284 17.8217 244.574 14.1416 249.387 14.1416C251.468 14.1443 253.465 14.9673 254.952 16.4345L253.29 18.4867C252.301 17.4497 250.95 16.8412 249.524 16.7899C246.11 16.7899 243.55 19.7821 243.55 24.1731C243.55 28.564 245.939 31.4989 249.433 31.4989C251.109 31.4524 252.711 30.7921 253.939 29.6416L255.327 31.8084C253.648 33.3574 251.459 34.227 249.182 34.2504C244.085 34.2504 240.284 30.5703 240.284 24.2189Z" fill="white"/>
<path d="M6.68446e-05 20.0458C-0.0126124 24.9588 1.77887 29.703 5.0297 33.3651C8.28053 37.0273 12.761 39.3485 17.6086 39.8822C22.4563 40.4159 27.3285 39.1242 31.2876 36.2557C35.2467 33.3873 38.0128 29.1449 39.0535 24.345H33.8191C33.6392 24.3817 33.4735 24.4692 33.3411 24.5972C32.9598 24.9871 32.6168 25.4133 32.317 25.8698C32.2333 26.0172 32.1096 26.1375 31.9605 26.2167C31.8114 26.2959 31.643 26.3306 31.475 26.3169C31.0653 26.3169 30.6443 26.3169 30.2005 26.3742V28.0939C30.5191 28.1971 30.8605 28.2888 31.1905 28.4149C31.3613 28.4773 31.5038 28.6 31.5917 28.7602C31.6796 28.9204 31.7068 29.1073 31.6684 29.2862C31.6684 29.7104 31.6684 30.146 31.2132 30.3524C30.1184 30.7986 28.8943 30.7986 27.7995 30.3524C27.6372 30.2929 27.5012 30.1772 27.4157 30.026C27.3303 29.8748 27.3009 29.6979 27.3329 29.527C27.3329 29.0913 27.2419 28.6098 27.7881 28.3805C28.1295 28.2544 28.4708 28.1512 28.8236 28.0366V26.4315L23.2023 26.6952V28.1054L23.3502 28.1741C24.5792 28.541 24.3857 28.7703 24.3402 29.8824C24.3402 30.0772 24.0216 30.3409 23.794 30.4441C22.9896 30.7635 22.0949 30.7635 21.2906 30.4441C20.6078 30.2148 20.7102 29.6531 20.6875 29.1257C20.6759 28.9275 20.7366 28.7319 20.8581 28.5757C20.9797 28.4194 21.1537 28.3133 21.3475 28.2773C21.5113 28.2114 21.6784 28.154 21.8481 28.1054V26.7296L16.3747 26.9818V28.1283L16.7389 28.2315C18.002 28.5639 17.8085 28.8505 17.763 29.848C17.763 30.0429 17.5127 30.2951 17.3192 30.3868C16.8009 30.6081 16.2436 30.7222 15.6806 30.7222C15.1176 30.7222 14.5604 30.6081 14.042 30.3868C13.4844 30.169 13.5982 29.676 13.5755 29.2403C13.5512 29.0685 13.5882 28.8936 13.6799 28.7467C13.7716 28.5998 13.912 28.4903 14.0761 28.4378C14.3834 28.3117 14.6906 28.2315 15.0206 28.1283V27.0965L8.39792 27.4175V12.7544L15.0206 13.0754V12.0436C14.6906 11.9404 14.3834 11.8601 14.0761 11.734C13.912 11.6815 13.7716 11.5721 13.6799 11.4251C13.5882 11.2782 13.5512 11.1033 13.5755 10.9315C13.5755 10.4844 13.4844 9.99141 14.042 9.78505C14.5597 9.56111 15.1172 9.44563 15.6806 9.44563C16.244 9.44563 16.8015 9.56111 17.3192 9.78505C17.5127 9.87677 17.763 10.129 17.763 10.3124C17.763 11.3213 18.002 11.6079 16.7389 11.9404L16.3747 12.0436V13.19L21.8481 13.4422V12.0665L21.3475 11.8945C21.1537 11.8585 20.9797 11.7524 20.8581 11.5962C20.7366 11.4399 20.6759 11.2443 20.6875 11.0461C20.6875 10.5073 20.6078 9.95702 21.2906 9.72773C22.0949 9.40834 22.9896 9.40834 23.794 9.72773C24.0216 9.83091 24.3288 10.0946 24.3402 10.2895C24.3402 11.4359 24.5792 11.6194 23.3502 11.9977L23.2023 12.0665V13.4766L28.8236 13.7403V12.0206C28.4708 11.906 28.1295 11.8028 27.7881 11.6767C27.2419 11.4818 27.3557 11.0003 27.3329 10.5302C27.3009 10.3593 27.3303 10.1824 27.4157 10.0312C27.5012 9.87999 27.6372 9.76431 27.7995 9.7048C28.8943 9.2586 30.1184 9.2586 31.2132 9.7048C31.7253 9.91116 31.657 10.3468 31.6684 10.771C31.7068 10.9499 31.6796 11.1368 31.5917 11.297C31.5038 11.4572 31.3613 11.5799 31.1905 11.6423L30.2005 11.9633V13.683C30.6443 13.683 31.0653 13.7518 31.475 13.683C31.643 13.6693 31.8114 13.704 31.9605 13.7832C32.1096 13.8624 32.2333 13.9827 32.317 14.1301C32.6168 14.5866 32.9598 15.0128 33.3411 15.4027C33.4764 15.5265 33.641 15.6133 33.8191 15.6549H39.0535C38.013 10.856 35.2478 6.61431 31.2899 3.74591C27.332 0.877509 22.4611 -0.414958 17.6143 0.117179C12.7675 0.649317 8.2872 2.96847 5.03546 6.62842C1.78372 10.2884 -0.00977128 15.0306 6.68446e-05 19.9426V20.0458Z" fill="white"/>
</svg>
